<svg width="800" height="600" xmlns="http://www.w3.org/2000/svg">

 <g>
  <title>Layer 1</title>
  <path d="m185.66667,199.66666c-8,-1 -20.82355,-4.49539 -40,-6c-18.94179,-1.48619 -32.84075,4.11073 -36,13c-2.69988,7.59676 -0.81183,21.40683 3,28c5.00517,8.65726 12.17432,13.07486 21,19c11.13898,7.47818 22.57121,10.00745 31,13c8.6882,3.08466 15.9258,5.49756 21,6c0.99513,0.09854 1,-2 1,-4l0,-6" id="svg_2" stroke="#000" fill="none"/>
  <path d="m302.66666,200.66666c-1,0 -4,0 -10,0c-7,0 -18.34802,-0.95824 -25,2c-8.62003,3.83345 -12.29559,8.0146 -11.99998,11c0.50243,5.0742 3.48332,9.48335 10.99998,17c7.51666,7.51665 12.67285,9.28026 17,14c2.43658,2.65765 3,6 3,9c0,2 0,4 0,5c0,0 -2.37201,1.3851 -6,4c-2.29453,1.65381 -4,2 -4,2c-1,0 -2,0 -5,0c-3,0 -5.87857,1.49347 -9,2c-1.97418,0.32037 -3,1 -4,1l1,-1" id="svg_3" stroke="#000" fill="none"/>
  <path d="m373.66666,208.66666c0,14 0.63489,30.0645 -1,43c-2.16458,17.12643 -4,25 -5,27l0,1" id="svg_4" stroke="#000" fill="none"/>
  <path d="m393.66666,198.66666c6,4 14,9 24,14c6,3 11.69238,7.41092 15,12c2.6149,3.62799 3.98206,12.05374 3,21c-1.00601,9.16449 -11.0744,19.15555 -23,23c-7.6734,2.47366 -21.36569,7.95547 -31,10c-1.95642,0.41519 -3,2 -5,4l0,0l3,2l9,-3" id="svg_5" stroke="#000" fill="none"/>
  <path d="m516.66669,210.66666c0,2 -0.94952,10.01022 -3,20c-3.90402,19.01996 -7.00003,32 -9.00003,42l-2,3l0,1" id="svg_6" stroke="#000" fill="none"/>
  <path d="m554.66669,205.66666c0,3 0,13 0,29c0,12 -0.97748,25.05994 0,33c1.00757,8.18442 3.09869,9.4332 4,9c5.77118,-2.77377 12.12622,-16.92725 19,-29c5.09412,-8.94707 13,-25 19,-37l5,-6" id="svg_7" stroke="#000" fill="none"/>
 </g>
</svg>